<!DOCTYPE svg PUBLIC "-//W3C//DTD SVG 1.1//EN" "http://www.w3.org/Graphics/SVG/1.1/DTD/svg11.dtd">
<!-- Uploaded to: SVG Repo, www.svgrepo.com, Transformed by: SVG Repo Mixer Tools -->
<svg fill="#000000" height="64px" width="64px" version="1.1" id="Capa_1" xmlns="http://www.w3.org/2000/svg" xmlns:xlink="http://www.w3.org/1999/xlink" viewBox="0 0 153.107 153.107" xml:space="preserve">
<g id="SVGRepo_bgCarrier" stroke-width="0"/>
<g id="SVGRepo_tracerCarrier" stroke-linecap="round" stroke-linejoin="round"/>
<g id="SVGRepo_iconCarrier"> <g> <path d="M24.371,142.202c4.808,2.404,10.147,4.428,15.863,6.066c0.115,0.033,0.231,0.067,0.348,0.098 c10.918,3.088,23.216,4.74,35.971,4.74c19.587,0,38.12-3.873,52.184-10.904c15.716-7.857,24.371-18.91,24.371-31.123V42.026 c0-12.211-8.655-23.264-24.371-31.121C114.672,3.874,96.14,0.001,76.553,0.001c-19.586,0-38.118,3.873-52.182,10.904 C8.655,18.763,0,29.815,0,42.026v69.053C0,123.292,8.655,134.345,24.371,142.202z M15,111.079V67.468 c2.772,2.033,5.888,3.939,9.371,5.682c3.324,1.662,6.905,3.141,10.684,4.441v53.072C22.453,125.376,15,118.015,15,111.079z M138.107,111.079c0,12.783-25.279,27.027-61.555,27.027c-9.717,0-18.634-1.029-26.498-2.771V81.562 c8.369,1.631,17.314,2.492,26.498,2.492c19.587,0,38.12-3.873,52.184-10.904c3.483-1.742,6.599-3.648,9.371-5.682V111.079z M76.553,15.001c36.275,0,61.555,14.242,61.555,27.025s-25.279,27.027-61.555,27.027c-11.741,0-22.32-1.498-31.272-3.949 c-0.46-0.18-0.94-0.314-1.438-0.4C25.979,59.505,15,50.45,15,42.026C15,29.243,40.279,15.001,76.553,15.001z"/> <path d="M49.346,47.616l24.412,12.207c0.88,0.441,1.837,0.66,2.795,0.66c0.958,0,1.915-0.219,2.795-0.66l24.414-12.207 c2.117-1.059,3.455-3.223,3.455-5.59c0-2.367-1.338-4.531-3.455-5.59L79.348,24.229c-1.76-0.881-3.83-0.881-5.59,0L49.346,36.437 c-2.117,1.059-3.455,3.223-3.455,5.59C45.891,44.394,47.229,46.558,49.346,47.616z M76.553,36.808l10.439,5.219l-10.439,5.221 l-10.438-5.221L76.553,36.808z"/> </g> </g>
</svg>